<svg xmlns="http://www.w3.org/2000/svg" width="30" height="25.351" viewBox="0 0 30 25.351"><defs><style>.a{fill:#363636;}</style></defs><path class="a" d="M2.363,41.987a7.952,7.952,0,0,1,5.723-2.315,7.512,7.512,0,0,1,6.877,3.667L15,43.4l.037-.062a7.512,7.512,0,0,1,6.877-3.667,7.952,7.952,0,0,1,5.723,2.315A8.592,8.592,0,0,1,30,48.184c0,5.285-4.7,8.789-8.843,11.881a29.793,29.793,0,0,0-5.244,4.521,1.172,1.172,0,0,1-1.826,0,17.9,17.9,0,0,0-2.763-2.626,1.172,1.172,0,0,1,1.468-1.827A25.33,25.33,0,0,1,15,62.1a41.389,41.389,0,0,1,4.756-3.91c3.884-2.9,7.9-5.893,7.9-10,0-3.632-2.361-6.168-5.742-6.168a5.262,5.262,0,0,0-4.825,2.458,6.816,6.816,0,0,0-.921,2.651,1.172,1.172,0,0,1-2.336.005,6.813,6.813,0,0,0-.921-2.656,5.262,5.262,0,0,0-4.825-2.458c-3.381,0-5.742,2.537-5.742,6.168,0,3.4,2.769,6.037,5.761,8.38a1.172,1.172,0,1,1-1.445,1.845,24.843,24.843,0,0,1-4.554-4.389A9.517,9.517,0,0,1,0,48.184,8.592,8.592,0,0,1,2.363,41.987Z" transform="translate(0 -39.672)"/></svg>