<svg xmlns="http://www.w3.org/2000/svg" xmlns:xlink="http://www.w3.org/1999/xlink" width="50" height="50" viewBox="0 0 50 50"><defs><style>.a{fill:#973939;}.b{clip-path:url(#a);}.c{fill:#cf9833;}</style><clipPath id="a"><rect class="a" width="50" height="50" transform="translate(118 690)"/></clipPath></defs><g class="b" transform="translate(-118 -690)"><g transform="translate(118 690)"><path class="c" d="M49.565.435A1.485,1.485,0,0,0,48.43,0a40.157,40.157,0,0,0-9.077,1.9A44.53,44.53,0,0,0,21.567,12.585c-1.409,1.409-2.9,3-4.3,4.631C14.921,16.423,9.184,15.5.708,20.707A1.484,1.484,0,0,0,.9,23.336L10.4,27.4,7.3,30.632a1.484,1.484,0,0,0,.023,2.075l1.1,1.1A8.171,8.171,0,0,0,6.25,35.353c-3.454,3.454-2.695,9.523-2.661,9.78A1.484,1.484,0,0,0,4.865,46.41a14.072,14.072,0,0,0,1.714.094c2.112,0,5.7-.39,8.066-2.754a8.175,8.175,0,0,0,1.542-2.181l1.107,1.107a1.484,1.484,0,0,0,2.075.023L22.605,39.6,26.662,49.1a1.484,1.484,0,0,0,1.256.9c.037,0,.073,0,.109,0a1.485,1.485,0,0,0,1.265-.708c5.2-8.476,4.284-14.211,3.492-16.561,1.631-1.4,3.222-2.886,4.631-4.3A44.531,44.531,0,0,0,48.095,10.648,40.158,40.158,0,0,0,50,1.571,1.486,1.486,0,0,0,49.565.435ZM4.856,21.8a19.034,19.034,0,0,1,8.354-2.235h.033a10.847,10.847,0,0,1,1.967.177,30.947,30.947,0,0,0-3.3,5.073ZM12.547,41.65c-1.663,1.663-4.478,1.9-6.082,1.884-.016-1.6.221-4.419,1.884-6.082A5.842,5.842,0,0,1,10.7,36.084l3.211,3.211A5.841,5.841,0,0,1,12.547,41.65Zm5.82-2.1-7.915-7.915,2.457-2.569,8.027,8.027ZM28.2,45.143l-3.014-7.054a30.943,30.943,0,0,0,5.074-3.3,10.752,10.752,0,0,1,.173,1.732A18.716,18.716,0,0,1,28.2,45.143Zm7.116-18.808c-4.43,4.43-8.971,7.988-11.717,9.223L14.443,26.4c1.235-2.746,4.793-7.287,9.223-11.717A40.74,40.74,0,0,1,37.045,5.9l7.047,7.047A40.43,40.43,0,0,1,35.317,26.335Zm9.9-16.458-5.1-5.1.051-.017a42.481,42.481,0,0,1,6.655-1.585A42.752,42.752,0,0,1,45.215,9.877Z"/><path class="c" d="M36.661,13.339a5.664,5.664,0,1,0,0,8.01A5.67,5.67,0,0,0,36.661,13.339Zm-2.1,5.911a2.7,2.7,0,1,1,.79-1.906A2.678,2.678,0,0,1,34.562,19.251Z"/></g></g></svg>