<svg xmlns="http://www.w3.org/2000/svg" xmlns:xlink="http://www.w3.org/1999/xlink" width="50" height="50" viewBox="0 0 50 50"><defs><style>.a{fill:#cf9833;}.b{clip-path:url(#a);}</style><clipPath id="a"><rect class="a" width="50" height="50" transform="translate(1018 690)"/></clipPath></defs><g class="b" transform="translate(-1018 -690)"><g transform="translate(1018 690)"><path class="a" d="M48.047,27.746A1.953,1.953,0,0,0,50,25.793V14.453a7.821,7.821,0,0,0-7.812-7.812H7.813A7.821,7.821,0,0,0,0,14.453V35.547a7.821,7.821,0,0,0,7.813,7.813H42.188A7.821,7.821,0,0,0,50,35.547a1.953,1.953,0,0,0-3.906,0,3.911,3.911,0,0,1-3.906,3.906H7.813a3.911,3.911,0,0,1-3.906-3.906V20.91H46.094v4.883A1.953,1.953,0,0,0,48.047,27.746ZM3.906,17V14.453a3.911,3.911,0,0,1,3.906-3.906H42.188a3.911,3.911,0,0,1,3.906,3.906V17Z"/></g></g></svg>