<svg xmlns="http://www.w3.org/2000/svg" xmlns:xlink="http://www.w3.org/1999/xlink" width="50" height="50" viewBox="0 0 50 50"><defs><style>.a{fill:#cf9833;}.b{clip-path:url(#a);}</style><clipPath id="a"><rect class="a" width="50" height="50" transform="translate(718 690)"/></clipPath></defs><g class="b" transform="translate(-718 -690)"><g transform="translate(718 690)"><path class="a" d="M14.509,28.826a1.953,1.953,0,0,0,1.311,3.4h6.055a1.953,1.953,0,0,0,0-3.906h-1.4c2.853-3.234,3.226-4.828,3.226-5.859a4.888,4.888,0,0,0-4.883-4.883l-.035,0-.035,0a4.888,4.888,0,0,0-4.883,4.883,1.953,1.953,0,0,0,3.906,0,.99.99,0,0,1,.977-.977l.035,0,.035,0a.99.99,0,0,1,.976.956c-.019.1-.26,1.107-2.558,3.641C15.877,27.583,14.522,28.814,14.509,28.826Z"/><path class="a" d="M35.912,43.056A21.054,21.054,0,0,1,25,46.094,1.953,1.953,0,0,0,25,50a24.96,24.96,0,0,0,12.936-3.6,1.953,1.953,0,1,0-2.024-3.341Z"/><path class="a" d="M42.678,7.322A25,25,0,0,0,3.824,38.294a25.089,25.089,0,0,0,7.752,7.8H6.152a1.953,1.953,0,0,0,0,3.906h5.963a6.257,6.257,0,0,0,6.25-6.25V37.988a1.953,1.953,0,0,0-3.906,0v5.288a21.128,21.128,0,1,1,28.058-6.568,1.953,1.953,0,1,0,3.247,2.171A24.938,24.938,0,0,0,42.678,7.322Z"/><path class="a" d="M28.613,17.578a1.953,1.953,0,0,0-1.953,1.953v2.393A5.319,5.319,0,0,0,33.4,27.053v3.22a1.953,1.953,0,0,0,3.906,0V19.531a1.953,1.953,0,0,0-3.906,0v2.393a1.416,1.416,0,0,1-2.832,0V19.531A1.953,1.953,0,0,0,28.613,17.578Z"/></g></g></svg>