<svg xmlns="http://www.w3.org/2000/svg" xmlns:xlink="http://www.w3.org/1999/xlink" width="50" height="50" viewBox="0 0 50 50"><defs><style>.a{fill:#973939;}.b{clip-path:url(#a);}.c{fill:#cf9833;}</style><clipPath id="a"><rect class="a" width="50" height="50" transform="translate(418 690)"/></clipPath></defs><g class="b" transform="translate(-418 -690)"><g transform="translate(418 690)"><path class="c" d="M49.307,22.39a1.953,1.953,0,0,0-3.8.924,20.383,20.383,0,0,1,.416,2.259A23.736,23.736,0,0,0,40.82,25a20.383,20.383,0,0,0-5.639,1.063c-.468-8.734-3.119-14.455-5.429-17.848a20.747,20.747,0,0,1,12.307,7.8,1.953,1.953,0,0,0,3.12-2.35,24.647,24.647,0,0,0-8.706-7.2,25.82,25.82,0,0,0-9.521-2.584V1.953a1.953,1.953,0,0,0-3.906,0V3.88a25.111,25.111,0,0,0-15.7,6.934A23.968,23.968,0,0,0,0,28.223a1.953,1.953,0,0,0,2.73,1.792,17.727,17.727,0,0,1,6.255-1.109,24.389,24.389,0,0,1,6.95,1.7,1.947,1.947,0,0,0,1.5.012l.012,0,.008,0q.074-.031.145-.068a18.245,18.245,0,0,1,5.446-1.518V44.141a1.955,1.955,0,0,1-1.953,1.953,2,2,0,0,1-1.953-2,1.953,1.953,0,0,0-3.906,0,5.859,5.859,0,1,0,11.719.046V29.024a18.267,18.267,0,0,1,5.437,1.513,1.958,1.958,0,0,0,1.7.061,22.515,22.515,0,0,1,6.735-1.691,19.475,19.475,0,0,1,6.492,1.126A1.953,1.953,0,0,0,50,28.223,24.694,24.694,0,0,0,49.307,22.39Zm-34.49,3.7A21.522,21.522,0,0,0,8.984,25a22.6,22.6,0,0,0-4.908.546A20.415,20.415,0,0,1,20.246,8.217C17.935,11.614,15.282,17.341,14.817,26.085ZM25,25a22,22,0,0,0-6.261.947,32.4,32.4,0,0,1,3.685-13.815A19.9,19.9,0,0,1,25,8.463a19.731,19.731,0,0,1,2.45,3.45,32.163,32.163,0,0,1,3.808,14.034A22,22,0,0,0,25,25Z"/></g></g></svg>