<svg xmlns="http://www.w3.org/2000/svg" width="25.35" height="25.35" viewBox="0 0 25.35 25.35"><defs><style>.a{fill:#363636;}</style></defs><path class="a" d="M25.286,21.722a.99.99,0,0,0-1.939.4,1.035,1.035,0,0,1-.21.867,1.006,1.006,0,0,1-.792.377H3.005a1.006,1.006,0,0,1-.792-.377A1.035,1.035,0,0,1,2,22.126a10.941,10.941,0,0,1,10.409-8.663q.131.005.263.005t.263-.005a10.893,10.893,0,0,1,8.8,4.835.99.99,0,1,0,1.645-1.1,12.88,12.88,0,0,0-6.674-5.071,6.734,6.734,0,1,0-8.06,0,12.88,12.88,0,0,0-8.582,9.6A3.008,3.008,0,0,0,3.005,25.35h19.34a3.008,3.008,0,0,0,2.941-3.628ZM7.922,6.734a4.753,4.753,0,1,1,4.994,4.747l-.241,0-.24,0A4.759,4.759,0,0,1,7.922,6.734Z" transform="translate(0)"/></svg>