<svg xmlns="http://www.w3.org/2000/svg" width="45.7" height="45.7" viewBox="0 0 45.7 45.7"><defs><style>.a{fill:#cf9833;}.b{fill:#fff;}</style></defs><rect class="a" width="45.7" height="45.7" rx="22.85" transform="translate(0)"/><path class="b" d="M6.465,21.935a8.078,8.078,0,0,1-2.67-.511,5.409,5.409,0,0,1-1.948-1.269A5.377,5.377,0,0,1,.577,18.206a8.071,8.071,0,0,1-.511-2.67C.012,14.363,0,13.989,0,11S.012,7.639.067,6.466A8.071,8.071,0,0,1,.577,3.8a5.383,5.383,0,0,1,1.27-1.95A5.4,5.4,0,0,1,3.8.577,8.066,8.066,0,0,1,6.466.067C7.639.012,8.014,0,11,0s3.362.013,4.535.067a8.06,8.06,0,0,1,2.67.511,5.385,5.385,0,0,1,1.948,1.269,5.41,5.41,0,0,1,1.269,1.949,8.066,8.066,0,0,1,.511,2.67C21.988,7.638,22,8.012,22,11s-.012,3.361-.066,4.535a8.044,8.044,0,0,1-.511,2.67,5.627,5.627,0,0,1-3.218,3.218,8.066,8.066,0,0,1-2.67.511C14.362,21.988,13.988,22,11,22S7.639,21.988,6.465,21.935ZM2.426,4.513a6.122,6.122,0,0,0-.378,2.043C2,7.716,1.984,8.064,1.984,11s.011,3.286.064,4.445a6.074,6.074,0,0,0,.378,2.043,3.394,3.394,0,0,0,.823,1.264,3.419,3.419,0,0,0,1.265.823,6.079,6.079,0,0,0,2.043.378c1.16.053,1.508.064,4.445.064s3.286-.011,4.445-.064a6.073,6.073,0,0,0,2.043-.378,3.638,3.638,0,0,0,2.087-2.086,6.1,6.1,0,0,0,.378-2.043c.053-1.16.064-1.508.064-4.445s-.011-3.284-.064-4.445a6.074,6.074,0,0,0-.378-2.043,3.407,3.407,0,0,0-.823-1.265,3.409,3.409,0,0,0-1.265-.823,6.117,6.117,0,0,0-2.043-.378C14.286,2,13.937,1.984,11,1.984s-3.286.011-4.445.064a6.072,6.072,0,0,0-2.043.378,3.39,3.39,0,0,0-1.265.823,3.409,3.409,0,0,0-.822,1.264ZM5.351,11h0A5.649,5.649,0,1,1,11,16.65,5.628,5.628,0,0,1,5.352,11Zm1.983,0a3.664,3.664,0,1,0,.728-2.193A3.667,3.667,0,0,0,7.335,11Zm9.537-4.551a1.32,1.32,0,0,1-1.319-1.32h0a1.32,1.32,0,1,1,1.319,1.32Z" transform="translate(11.847 11.858)"/></svg>