<svg xmlns="http://www.w3.org/2000/svg" xmlns:xlink="http://www.w3.org/1999/xlink" width="97" height="92.874" viewBox="0 0 97 92.874"><defs><style>.a{fill:#cf9833;}.b{fill:#fff;}.c{filter:url(#a);}</style><filter id="a" x="0" y="0" width="97" height="92.874" filterUnits="userSpaceOnUse"><feOffset dy="3" input="SourceAlpha"/><feGaussianBlur stdDeviation="12.5" result="b"/><feFlood flood-color="#60b7fa" flood-opacity="0.341"/><feComposite operator="in" in2="b"/><feComposite in="SourceGraphic"/></filter></defs><g transform="translate(25.521 20.779)"><rect class="a" width="45.7" height="45.7" rx="22.85" transform="translate(0)"/><g class="c" transform="matrix(1, 0, 0, 1, -25.52, -20.78)"><path class="b" d="M14.7,0V0H15.73l.377.075a4.032,4.032,0,0,1,.684.193,4.868,4.868,0,0,1,.6.278,5.659,5.659,0,0,1,.522.323,3.211,3.211,0,0,1,.417.345.578.578,0,0,0,.569.1,7.615,7.615,0,0,0,.833-.249Q20.174.9,20.61.7t.532-.252l.1-.06,0-.006.02-.01.02-.01.02-.01.02-.01,0-.006.006,0,.006,0,0-.006.02-.006.02,0,0,.03-.006.03-.01.03-.01.03-.01.02-.01.02-.01.03a.691.691,0,0,0-.02.079,3.328,3.328,0,0,1-.188.4,4.962,4.962,0,0,1-.446.7,3.462,3.462,0,0,1-.482.539q-.214.184-.284.258a.852.852,0,0,1-.169.139l-.1.065-.02.01-.02.01,0,.006-.006,0-.006,0,0,.006-.02.01-.02.01,0,.006-.006,0-.006,0,0,.006,0,.006-.006,0-.006,0,0,.006h.1l.556-.119a9.939,9.939,0,0,0,1.06-.288L21.75,2.2l.06-.02.03-.01.02-.01.02-.01.02-.01.02-.01.04-.006.04,0v.04l-.01,0-.01.006,0,.006-.006,0-.006,0,0,.006,0,.006-.006,0-.006,0,0,.006,0,.006-.006,0-.01.02-.01.02-.006,0-.252.337a2.789,2.789,0,0,1-.268.337q-.02.006-.055.06a5.684,5.684,0,0,1-.421.442,9.983,9.983,0,0,1-.758.688.939.939,0,0,0-.377.746q-.006.44-.046,1t-.149,1.2a14.308,14.308,0,0,1-.337,1.458,13.256,13.256,0,0,1-.556,1.587A12.363,12.363,0,0,1,18,11.505q-.357.615-.655,1.041t-.605.8q-.308.377-.778.849t-.516.516q-.046.044-.389.326t-.734.567a8.488,8.488,0,0,1-.718.47q-.326.188-.789.431a9.392,9.392,0,0,1-1,.452q-.536.208-1.131.387a10.328,10.328,0,0,1-1.151.278q-.555.1-1.26.169l-.7.069v.01H6.288v-.01l-.169-.01q-.169-.01-.278-.02t-.823-.109q-.714-.1-1.122-.2t-1.209-.378a11.774,11.774,0,0,1-1.375-.561Q.744,16.306.6,16.23t-.321-.183L.1,15.939l0-.006-.006,0-.006,0,0-.006-.02-.01-.02-.01,0-.006-.006,0-.006,0,0-.006,0-.006-.006,0H0v-.04l.02,0,.02.006.089.01q.089.01.486.03t.843,0a8.871,8.871,0,0,0,.912-.089,10.28,10.28,0,0,0,1.1-.238,8.134,8.134,0,0,0,1.167-.4q.53-.234.755-.349a7.339,7.339,0,0,0,.678-.421l.454-.307,0-.006.006,0,.006,0,0-.006,0-.006.006,0,.006,0,0-.006.02-.006.02,0,0-.02.006-.02.006,0,0-.006-.159-.01-.308-.02a2.982,2.982,0,0,1-.466-.089,4.474,4.474,0,0,1-.684-.238,5.276,5.276,0,0,1-.714-.377,3.514,3.514,0,0,1-.5-.363q-.153-.143-.4-.4a4.014,4.014,0,0,1-.421-.541,4.866,4.866,0,0,1-.341-.641l-.165-.359-.01-.03-.01-.03-.006-.02,0-.02.03,0,.03.006.218.03a4.849,4.849,0,0,0,.684.02,5.3,5.3,0,0,0,.645-.04q.178-.03.218-.04l.04-.01.05-.01.05-.01,0-.006.006,0,.006,0,0-.006-.039-.01-.04-.01-.04-.01-.04-.01-.04-.01-.139-.04q-.1-.03-.536-.218a4.1,4.1,0,0,1-.693-.367A4.8,4.8,0,0,1,2.366,9.7a5.614,5.614,0,0,1-.51-.551,3.968,3.968,0,0,1-.5-.784,4.765,4.765,0,0,1-.326-.853A4.6,4.6,0,0,1,.89,6.685L.854,6.268l.02,0,.02.006.02.01.02.01.02.01.02.01.308.139a3.879,3.879,0,0,0,.764.238q.456.1.546.109l.089.01h.178l0-.006-.006,0-.006,0,0-.006,0-.006-.006,0-.006,0,0-.006-.02-.01-.02-.01,0-.006-.006,0-.006,0,0-.006-.02-.01-.02-.01,0-.006-.171-.127A2.6,2.6,0,0,1,2.2,6.259q-.178-.2-.357-.417a3.217,3.217,0,0,1-.318-.466,5.651,5.651,0,0,1-.294-.631A4.478,4.478,0,0,1,1,3.977a4.37,4.37,0,0,1-.089-.764,4.809,4.809,0,0,1,.02-.645,4.214,4.214,0,0,1,.118-.6,4.714,4.714,0,0,1,.258-.714L1.478.873l.011-.03L1.5.813l.006,0,0-.006,0-.006.006,0,.006,0,0,.006,0,.006.006,0,.006,0,0,.006,0,.006.006,0,.01.02.01.02.006,0,0,.006.268.3q.268.3.635.665a3.73,3.73,0,0,0,.406.381.29.29,0,0,1,.1.091,4.049,4.049,0,0,0,.4.351q.337.278.883.645t1.21.724a11.807,11.807,0,0,0,1.428.645q.764.288,1.071.377t1.051.228q.744.139,1.122.178t.516.046l.139,0,0-.03-.006-.03-.04-.248a4.661,4.661,0,0,1-.04-.693,4.552,4.552,0,0,1,.069-.823A4.876,4.876,0,0,1,11,2.926a4.08,4.08,0,0,1,.272-.622,6.107,6.107,0,0,1,.353-.529,4.277,4.277,0,0,1,.565-.615A4.172,4.172,0,0,1,12.983.6a5.158,5.158,0,0,1,.823-.377A3.836,3.836,0,0,1,14.441.05,2.206,2.206,0,0,0,14.7,0Z" transform="translate(37.5 34.5)"/></g></g></svg>