<svg xmlns="http://www.w3.org/2000/svg" xmlns:xlink="http://www.w3.org/1999/xlink" width="97" height="90.451" viewBox="0 0 97 90.451"><defs><style>.a{fill:#cf9833;}.b{fill:#fff;}.c{filter:url(#a);}</style><filter id="a" x="0" y="0" width="97" height="90.451" filterUnits="userSpaceOnUse"><feOffset dy="3" input="SourceAlpha"/><feGaussianBlur stdDeviation="12.5" result="b"/><feFlood flood-color="#ff1a1a" flood-opacity="0.294"/><feComposite operator="in" in2="b"/><feComposite in="SourceGraphic"/></filter></defs><g transform="translate(25.249 19.431)"><rect class="a" width="45.7" height="45.7" rx="22.85" transform="translate(0 0)"/><g class="c" transform="matrix(1, 0, 0, 1, -25.25, -19.43)"><path class="b" d="M14.48,28.866a44.7,44.7,0,0,1-6.5-.328,2.857,2.857,0,0,1-1.491-.776A3.14,3.14,0,0,1,5.781,26.4a8.911,8.911,0,0,1-.3-2,47.507,47.507,0,0,1,0-6.483c.135-1.2.2-2.619,1.095-3.449a2.935,2.935,0,0,1,1.466-.741,80.937,80.937,0,0,1,8.337-.293,81.086,81.086,0,0,1,8.337.293,2.868,2.868,0,0,1,1.716,1.017,8.539,8.539,0,0,1,.913,4.13c.034.6.034,3.974,0,4.569a10.442,10.442,0,0,1-.526,3.4,2.5,2.5,0,0,1-.6.966,2.892,2.892,0,0,1-1.535.784c-3.626.273-6.7.332-10.2.276Zm5.552-7.931c-2.017-1.078-3.949-2.078-5.923-3.112v6.19c2.078-1.129,4.268-2.164,5.931-3.087Z" transform="translate(32.13 21.07)"/></g></g></svg>